<svg width="110" height="30" viewBox="0 0 110 30" fill="none" xmlns="http://www.w3.org/2000/svg">
<rect x="0.75" y="0.75" width="108.5" height="28.5" rx="14.25" stroke="url(#paint0_linear_1944_115)" stroke-width="1.5"/>
<path d="M16.4498 10.1925C18.7965 10.1925 20.6147 12.0522 20.6147 14.9623C20.6147 17.8724 18.7965 19.7322 16.4498 19.7322C15.4086 19.7322 14.5538 19.3706 13.9322 18.6129V22.935H11.5078V10.3302H13.8234V11.3978C14.4295 10.5885 15.3309 10.1925 16.4498 10.1925ZM16.0302 17.5281C17.2424 17.5281 18.1593 16.5637 18.1593 14.9623C18.1593 13.3609 17.2424 12.3966 16.0302 12.3966C14.818 12.3966 13.9011 13.3609 13.9011 14.9623C13.9011 16.5637 14.818 17.5281 16.0302 17.5281Z" fill="white"/>
<path d="M24.5533 11.5528C25.1438 10.6574 26.1384 10.1925 27.4283 10.1925V12.6721C27.2263 12.6549 27.0709 12.6377 26.8844 12.6377C25.5479 12.6377 24.662 13.447 24.662 15.2206V19.5944H22.2377V10.3302H24.5533V11.5528Z" fill="white"/>
<path d="M36.984 14.9968C36.984 15.2034 36.9529 15.4961 36.9374 15.72H30.6122C30.8453 16.8737 31.7312 17.5797 33.0055 17.5797C33.8914 17.5797 34.5285 17.287 35.1035 16.6843L36.3934 18.2341C35.6164 19.2156 34.4508 19.7322 32.9434 19.7322C30.0528 19.7322 28.1723 17.7175 28.1723 14.9623C28.1723 12.1899 30.0838 10.1925 32.6325 10.1925C35.088 10.1925 36.984 12.0177 36.984 14.9968ZM32.6481 12.2244C31.5447 12.2244 30.7521 12.9648 30.5812 14.153H34.6995C34.5285 12.982 33.7359 12.2244 32.6481 12.2244Z" fill="white"/>
<path d="M43.54 10.1925C45.8867 10.1925 47.705 12.0522 47.705 14.9623C47.705 17.8724 45.8867 19.7322 43.54 19.7322C42.4988 19.7322 41.644 19.3706 41.0224 18.6129V22.935H38.598V10.3302H40.9136V11.3978C41.5197 10.5885 42.4211 10.1925 43.54 10.1925ZM43.1204 17.5281C44.3326 17.5281 45.2495 16.5637 45.2495 14.9623C45.2495 13.3609 44.3326 12.3966 43.1204 12.3966C41.9082 12.3966 40.9913 13.3609 40.9913 14.9623C40.9913 16.5637 41.9082 17.5281 43.1204 17.5281Z" fill="white"/>
<path d="M58.3603 10.468C60.6914 10.468 62.432 12.3277 62.432 15.0656C62.432 17.8208 60.6914 19.6805 58.3603 19.6805C57.0548 19.6805 55.9359 19.0606 55.2521 17.8897V22.935H54.1487V10.5368H55.2055V12.3277C55.8737 11.1223 57.0082 10.468 58.3603 10.468ZM58.2826 18.5957C60.0076 18.5957 61.3286 17.1837 61.3286 15.0656C61.3286 12.9648 60.0076 11.5356 58.2826 11.5356C56.542 11.5356 55.2366 12.9648 55.2366 15.0656C55.2366 17.1837 56.542 18.5957 58.2826 18.5957Z" fill="white"/>
<path d="M67.4953 10.468C69.6088 10.468 70.8055 11.6389 70.8055 13.9808V19.5944H69.7487V18.1824C69.2514 19.1123 68.2878 19.6805 66.9358 19.6805C65.0864 19.6805 63.9519 18.6129 63.9519 17.0459C63.9519 15.6511 64.7601 14.4802 67.1067 14.4802H69.7021V13.9291C69.7021 12.3794 68.9095 11.5356 67.3865 11.5356C66.3297 11.5356 65.3351 11.9489 64.6668 12.6032L64.1695 11.6906C64.9932 10.9157 66.2054 10.468 67.4953 10.468ZM67.1067 18.7162C68.35 18.7162 69.2669 18.0619 69.7021 16.8737V15.3928H67.1378C65.5526 15.3928 65.0398 16.0816 65.0398 17.0115C65.0398 18.0619 65.8013 18.7162 67.1067 18.7162Z" fill="white"/>
<path d="M74.8592 12.3105C75.372 11.1051 76.4133 10.468 77.9207 10.468V11.6561C77.8275 11.6561 77.7342 11.6389 77.6565 11.6389C75.947 11.6389 74.9058 12.8443 74.9058 14.9795V19.5944H73.8024V10.5368H74.8592V12.3105Z" fill="white"/>
<path d="M83.2306 19.6805C80.7907 19.6805 79.019 17.7691 79.019 15.0656C79.019 12.3621 80.7907 10.468 83.2306 10.468C84.6137 10.468 85.7793 11.0707 86.432 12.2588L85.6083 12.8787C85.0489 11.9661 84.1786 11.5356 83.2306 11.5356C81.4434 11.5356 80.138 12.9476 80.138 15.0656C80.138 17.2009 81.4434 18.5957 83.2306 18.5957C84.1786 18.5957 85.0489 18.1824 85.6083 17.2698L86.432 17.8897C85.7793 19.0606 84.6137 19.6805 83.2306 19.6805Z" fill="white"/>
<path d="M95.5962 15.0656C95.5962 15.169 95.5807 15.3067 95.5807 15.4445H88.7427C88.8671 17.3386 90.1725 18.5957 91.9597 18.5957C92.9543 18.5957 93.8401 18.1996 94.4618 17.4075L95.0834 18.1996C94.353 19.1639 93.2185 19.6805 91.9286 19.6805C89.3799 19.6805 87.6393 17.7519 87.6393 15.0656C87.6393 12.3794 89.3333 10.468 91.6333 10.468C93.9334 10.468 95.5962 12.3449 95.5962 15.0656ZM91.6333 11.5184C90.0482 11.5184 88.8826 12.7582 88.7427 14.5318H94.5395C94.3996 12.7582 93.234 11.5184 91.6333 11.5184Z" fill="white"/>
<path d="M97.8421 19.5944V6.81738H98.9455V19.5944H97.8421Z" fill="white"/>
<defs>
<linearGradient id="paint0_linear_1944_115" x1="0" y1="15" x2="110" y2="15" gradientUnits="userSpaceOnUse">
<stop stop-color="#0386FE"/>
<stop offset="1" stop-color="#9507FF"/>
</linearGradient>
</defs>
</svg>
